<?xml version="1.0" standalone="no"?>
<!DOCTYPE svg PUBLIC "-//W3C//DTD SVG 20010904//EN"
 "http://www.w3.org/TR/2001/REC-SVG-20010904/DTD/svg10.dtd">
<svg version="1.0" xmlns="http://www.w3.org/2000/svg"
 width="1024.000000pt" height="1024.000000pt" viewBox="0 0 1024.000000 1024.000000"
 preserveAspectRatio="xMidYMid meet">
<metadata>
Created by potrace 1.14, written by Peter Selinger 2001-2017
</metadata>
<g transform="translate(0.000000,1024.000000) scale(0.100000,-0.100000)"
fill="#000000" stroke="none">
<path d="M0 5120 l0 -5120 5120 0 5120 0 0 5120 0 5120 -5120 0 -5120 0 0
-5120z m3458 4308 c-24 -76 -21 -174 8 -233 41 -88 130 -151 274 -197 66 -20
95 -23 240 -23 194 0 265 15 445 95 61 26 135 58 164 70 76 29 75 29 44 57
-53 47 -101 74 -154 88 -47 13 -61 13 -106 0 -29 -9 -69 -30 -89 -47 -36 -32
-84 -114 -84 -145 0 -15 -2 -16 -10 -3 -13 20 -13 155 0 202 16 55 69 120 120
146 37 20 56 23 111 19 54 -3 91 -15 200 -65 166 -75 266 -106 401 -126 117
-18 400 -21 513 -6 122 16 300 23 361 15 32 -5 50 -10 39 -13 -166 -36 -447
-172 -519 -250 -20 -23 -19 -23 54 -37 128 -24 303 -106 436 -203 90 -67 235
-215 292 -300 47 -68 109 -221 119 -287 5 -43 4 -48 -11 -42 -9 4 -44 12 -79
18 -60 11 -63 13 -112 76 -191 249 -464 394 -732 392 -48 0 -113 -5 -143 -9
-30 -5 -107 -14 -170 -19 -63 -5 -185 -24 -270 -41 -189 -39 -304 -42 -430
-12 -69 17 -309 98 -655 222 -89 32 -139 57 -179 89 -24 19 -46 29 -55 26 -12
-5 -13 -3 -4 6 9 9 7 18 -9 40 -19 26 -23 27 -38 14 -9 -8 -35 -16 -58 -19
-40 -4 -42 -2 -53 32 -7 22 -10 72 -6 136 6 139 48 253 130 359 16 20 30 37
32 37 2 0 -6 -28 -17 -62z m-11 -493 c-4 -8 -2 -17 3 -20 6 -4 10 -12 9 -18 0
-9 -2 -9 -6 1 -2 6 -11 12 -19 12 -17 0 -18 7 -1 25 16 18 21 19 14 0z m1530
-361 c-3 -3 -12 -4 -19 -1 -8 3 -5 6 6 6 11 1 17 -2 13 -5z m2187 -85 c73 -45
277 -192 371 -268 366 -295 726 -682 950 -1021 217 -329 363 -630 485 -1000
145 -439 210 -882 197 -1355 -25 -897 -317 -1703 -861 -2380 -200 -249 -546
-573 -792 -743 l-32 -22 -113 76 c-196 130 -417 240 -614 304 -120 40 -157 72
-174 150 -7 32 -11 213 -11 495 l0 443 40 49 c160 192 194 235 224 293 53 101
97 267 150 560 5 31 13 38 64 62 207 97 452 440 567 792 73 223 109 485 86
620 -36 204 -148 331 -293 331 -32 0 -58 2 -58 5 0 3 16 48 36 100 56 147 84
265 90 375 6 97 8 104 65 220 71 144 104 256 126 427 53 404 -101 757 -448
1034 l-111 88 9 55 c12 84 8 219 -10 284 -9 36 -11 57 -5 57 6 0 34 -14 62
-31z m-3318 -15 c22 -12 89 -75 148 -138 102 -110 111 -117 173 -136 82 -25
272 -27 393 -4 45 8 84 13 86 11 3 -2 -24 -12 -58 -22 -35 -9 -117 -35 -183
-56 -173 -55 -249 -69 -387 -69 -180 0 -280 31 -351 109 -74 82 -78 231 -7
298 50 47 111 50 186 7z m841 -260 c-3 -3 -12 -4 -19 -1 -8 3 -5 6 6 6 11 1
17 -2 13 -5z m-2017 -69 c-5 -22 -10 -63 -10 -90 0 -46 -4 -55 -41 -90 -66
-65 -140 -171 -171 -248 -95 -233 -36 -490 169 -734 65 -77 58 -94 -18 -44
-55 37 -68 48 -101 89 l-27 32 -7 -46 c-3 -25 -4 -91 -2 -145 6 -116 -2 -123
-64 -59 -37 40 -38 40 -38 15 0 -68 34 -186 81 -283 61 -124 161 -236 261
-295 64 -37 65 -38 75 -95 6 -31 29 -104 52 -161 23 -57 41 -104 41 -106 0 -1
-26 -5 -58 -8 -176 -15 -292 -188 -292 -435 0 -308 113 -663 298 -942 138
-208 288 -351 403 -383 11 -4 21 -40 38 -138 64 -372 113 -484 311 -709 44
-49 81 -96 81 -103 1 -6 1 -221 0 -476 -2 -589 11 -547 -197 -620 -219 -76
-397 -165 -586 -292 l-118 -79 -82 66 c-231 182 -287 232 -458 404 -102 102
-222 230 -266 286 -472 590 -753 1273 -850 2074 -26 206 -26 679 -1 875 65
505 207 968 426 1390 186 359 399 657 671 940 204 211 475 463 486 452 2 -1
-1 -20 -6 -42z m2828 -10 c58 -15 77 -25 47 -25 -39 0 -153 -34 -210 -63 -237
-119 -455 -381 -545 -657 -83 -255 -239 -436 -474 -550 -132 -65 -196 -81
-342 -87 -147 -7 -243 11 -354 65 -78 38 -224 148 -215 162 3 4 42 -1 87 -11
46 -10 139 -23 208 -30 107 -10 139 -9 220 5 159 28 301 107 453 256 81 78 96
98 121 162 48 121 160 339 216 424 202 299 486 425 788 349z m-828 -59 c0 -3
-4 -8 -10 -11 -5 -3 -10 -1 -10 4 0 6 5 11 10 11 6 0 10 -2 10 -4z m-50 -77
c12 -8 10 -9 -7 -4 -19 5 -22 3 -16 -12 6 -16 5 -16 -11 -4 -13 11 -14 16 -4
22 17 11 20 11 38 -2z m-52 -122 c-66 -85 -69 -87 -84 -73 -10 11 -11 20 -1
45 14 37 30 42 21 6 -4 -15 -2 -25 5 -25 6 0 11 6 11 14 0 8 9 21 21 29 17 12
19 19 10 35 -15 28 -14 35 4 28 10 -3 15 1 15 12 0 13 3 12 16 -6 15 -21 14
-25 -18 -65z m-90 43 c18 0 15 -27 -4 -34 -26 -10 -34 -7 -34 13 0 11 -6 22
-12 25 -7 4 -2 4 12 1 14 -2 31 -5 38 -5z m62 -21 c0 -5 -7 -9 -15 -9 -8 0
-15 7 -15 15 0 9 6 12 15 9 8 -4 15 -10 15 -15z m-385 -38 c0 -40 -2 -47 -14
-38 -9 8 -10 12 -2 15 6 2 11 9 11 15 0 7 -18 -8 -39 -33 -22 -24 -37 -49 -34
-55 4 -5 2 -7 -2 -2 -10 9 -86 -63 -79 -75 3 -4 -1 -5 -9 -2 -8 3 -21 -1 -28
-8 -23 -22 -100 -72 -166 -106 -71 -37 -197 -72 -263 -72 -66 0 -155 26 -228
66 l-63 34 -47 -16 c-46 -15 -61 -15 -205 2 l-47 6 21 38 c12 21 35 48 51 60
59 43 104 51 338 61 139 5 269 16 340 29 118 20 317 74 405 109 28 11 52 20
55 21 3 0 6 -22 5 -49z m325 -82 c0 -11 -7 -19 -17 -19 -20 -1 -53 -23 -53
-35 0 -5 9 0 20 10 11 10 22 16 25 13 5 -5 -60 -68 -69 -68 -3 0 -16 -10 -29
-22 -46 -44 -67 -57 -81 -52 -8 3 -25 -1 -38 -10 -12 -9 -17 -16 -11 -16 7 0
15 5 18 10 3 6 14 10 23 10 15 -1 15 -2 -2 -15 -24 -18 -42 -18 -81 0 -16 8
-20 12 -9 10 12 -3 33 -1 48 5 23 8 26 15 23 42 -2 18 -2 25 0 16 5 -21 23
-24 23 -4 0 8 9 16 21 18 11 2 28 16 37 33 25 44 41 58 61 52 14 -3 17 1 13
19 -3 19 1 23 29 26 43 4 49 1 49 -23z m-367 -3 c4 -10 1 -13 -9 -9 -7 3 -14
9 -14 14 0 14 17 10 23 -5z m42 4 c3 -5 1 -10 -4 -10 -6 0 -11 5 -11 10 0 6 2
10 4 10 3 0 8 -4 11 -10z m184 -27 c0 -5 -4 -17 -9 -28 -8 -18 -9 -17 -9 8 -1
15 4 27 9 27 6 0 10 -3 9 -7z m-159 -207 c-35 -10 -48 -3 -31 18 9 11 17 11
36 2 l25 -11 -30 -9z m-65 -26 c-3 -5 -18 -10 -33 -9 l-27 1 25 8 c35 11 42
11 35 0z m-98 -6 c-3 -3 -12 -4 -19 -1 -8 3 -5 6 6 6 11 1 17 -2 13 -5z m6
-21 c-7 -2 -19 -2 -25 0 -7 3 -2 5 12 5 14 0 19 -2 13 -5z m3041 -192 c-2 -2
0 -9 5 -15 5 -6 5 -20 0 -31 -7 -19 -8 -19 -8 1 -1 28 -24 46 -47 38 -14 -4
-16 -3 -5 4 13 9 64 12 55 3z m-14 -43 c0 -19 -2 -20 -10 -8 -13 19 -13 30 0
30 6 0 10 -10 10 -22z m-981 1 c37 -6 95 -26 131 -45 67 -35 253 -186 258
-210 2 -8 9 -14 15 -14 7 0 21 -8 32 -17 15 -12 16 -14 3 -10 -14 5 -15 2 -6
-24 10 -30 21 -40 16 -15 -6 27 16 19 44 -16 18 -22 26 -41 22 -51 -3 -9 -10
-15 -14 -12 -9 5 -5 -70 5 -102 4 -12 13 -24 21 -27 12 -5 11 1 -3 24 -15 26
-16 34 -4 52 11 18 11 20 -3 15 -21 -8 -21 7 0 27 19 20 38 11 31 -15 -3 -10
-1 -22 4 -25 6 -3 5 -12 -3 -22 -11 -15 -11 -15 3 -4 19 14 36 0 42 -36 2 -12
6 -25 10 -28 11 -11 8 -64 -3 -64 -5 0 -9 -10 -9 -22 1 -17 2 -19 6 -5 5 20
23 23 23 5 0 -7 3 -24 6 -38 4 -20 3 -22 -5 -10 -8 11 -10 2 -10 -40 1 -48 2
-51 10 -25 7 26 8 25 4 -10 -14 -126 -19 -154 -26 -149 -5 3 -9 -2 -9 -10 0
-10 6 -13 15 -10 11 5 13 2 9 -10 -4 -11 -2 -15 8 -11 9 4 14 -3 16 -24 1 -16
14 -50 28 -75 18 -32 21 -44 11 -40 -8 3 -18 1 -21 -4 -3 -5 0 -10 7 -9 33 1
44 -5 60 -33 14 -22 15 -30 5 -30 -8 0 -6 -5 5 -11 9 -5 17 -19 17 -30 0 -11
-4 -18 -9 -14 -11 6 -6 -94 5 -104 4 -3 4 10 0 29 -3 19 -1 42 4 50 8 12 10
10 11 -10 1 -14 3 -41 4 -60 1 -20 7 -51 13 -70 5 -19 13 -73 16 -120 3 -47 9
-96 12 -110 4 -14 9 -42 11 -62 3 -23 9 -35 16 -31 6 4 8 -2 4 -16 -3 -13 -3
-20 0 -17 13 13 37 -54 34 -95 -1 -19 -40 -65 -52 -62 -4 2 -6 -4 -3 -11 4 -9
-10 -26 -37 -45 -44 -33 -59 -38 -59 -20 0 34 -103 212 -157 270 -18 19 -20
26 -8 26 8 0 15 -4 15 -9 0 -4 5 -8 12 -8 6 0 4 8 -6 19 -10 11 -24 17 -31 15
-7 -3 -19 2 -28 10 -9 9 -22 16 -29 16 -10 -1 -9 -4 2 -13 8 -7 24 -25 34 -41
20 -32 13 -29 -54 23 -74 57 -215 118 -315 137 -164 30 -319 8 -475 -67 -118
-58 -245 -185 -311 -312 l-46 -88 -18 28 -18 27 44 86 c34 66 64 105 134 175
102 102 167 144 292 188 75 26 106 31 214 35 105 4 140 1 209 -17 104 -26 200
-70 259 -119 25 -20 41 -31 37 -24 -5 8 -1 19 10 28 18 14 17 14 -6 4 -22 -9
-23 -9 -6 2 11 7 41 33 67 56 27 24 52 41 57 38 5 -3 7 6 4 19 -2 14 -9 25
-14 25 -6 0 -8 6 -5 14 4 10 0 14 -14 11 -10 -2 -19 -1 -19 3 0 4 -15 13 -32
20 -36 14 -52 22 -173 87 l-80 43 -330 -7 c-309 -8 -335 -10 -412 -33 -107
-32 -130 -48 -143 -100 -34 -139 -170 -475 -188 -466 -73 39 -91 43 -177 43
-75 0 -97 -4 -135 -24 -25 -13 -48 -28 -52 -34 -4 -6 -66 110 -139 257 l-133
268 -45 20 c-25 11 -88 31 -140 44 -87 22 -111 24 -359 24 l-265 0 -56 -32
c-97 -54 -231 -150 -231 -164 0 -17 116 -114 136 -114 9 0 34 11 57 24 23 14
85 42 137 63 l95 38 165 0 c155 0 170 -2 245 -28 44 -16 112 -47 150 -69 122
-71 280 -254 262 -301 -11 -28 -24 -20 -62 38 -20 30 -70 85 -110 123 -226
211 -582 242 -865 76 -100 -59 -207 -172 -260 -276 -28 -55 -51 -88 -61 -88
-45 0 -149 115 -149 165 0 12 13 51 29 86 39 86 46 116 76 314 14 94 33 199
43 235 l17 65 95 8 c52 5 133 8 179 8 55 -1 114 6 170 20 76 19 137 26 386 44
87 6 195 27 195 37 0 5 6 8 13 6 24 -5 177 42 240 73 209 107 348 257 427 462
75 196 138 273 281 344 189 95 481 150 648 122z m971 -50 c0 -10 -5 -19 -11
-19 -5 0 -8 4 -4 9 3 5 1 12 -5 16 -6 4 -8 11 -4 16 8 14 24 0 24 -22z m27 -1
c-3 -8 -6 -5 -6 6 -1 11 2 17 5 13 3 -3 4 -12 1 -19z m-3831 -53 c15 -14 32
-25 37 -25 6 0 19 -7 28 -16 17 -15 18 -15 14 4 -3 18 -1 19 28 10 18 -6 67
-20 110 -32 43 -12 74 -26 70 -30 -4 -5 3 -6 17 -2 14 3 19 3 13 0 -7 -3 -13
-11 -13 -18 0 -9 -10 -12 -27 -9 -24 3 -25 2 -8 -6 18 -9 18 -10 -7 -10 -14
-1 -34 -4 -44 -8 -10 -4 -15 -2 -11 3 4 6 -5 9 -22 6 -16 -2 -49 5 -75 16 -50
23 -146 107 -146 128 0 19 5 18 36 -11z m3715 -8 c-10 -9 -11 -8 -5 6 3 10 9
15 12 12 3 -3 0 -11 -7 -18z m57 -35 c13 11 14 11 10 -2 -3 -8 -13 -14 -22
-14 -12 2 -15 -4 -11 -20 5 -18 4 -18 -5 -4 -5 9 -7 24 -3 34 4 12 8 14 11 6
3 -10 7 -10 20 0z m-304 -721 c-4 -17 -9 -30 -11 -27 -3 2 -2 19 2 36 4 17 9
30 11 27 2 -2 1 -18 -2 -36z m-2069 19 c-3 -5 -12 -10 -18 -10 -7 0 -6 4 3 10
19 12 23 12 15 0z m65 -59 c0 -5 -7 -14 -15 -21 -17 -14 -45 -7 -44 12 0 10 2
10 6 1 7 -18 33 -16 33 2 0 8 5 15 10 15 6 0 10 -4 10 -9z m-288 -8 c-6 -2 -9
-10 -6 -15 4 -7 2 -8 -5 -4 -13 9 -5 26 12 25 9 0 8 -2 -1 -6z m2295 -15 c-3
-8 -6 -5 -6 6 -1 11 2 17 5 13 3 -3 4 -12 1 -19z m-2457 2 c8 -5 11 -10 5 -10
-5 0 -17 5 -25 10 -8 5 -10 10 -5 10 6 0 17 -5 25 -10z m107 -6 c-3 -3 -12 -4
-19 -1 -8 3 -5 6 6 6 11 1 17 -2 13 -5z m280 -10 c-3 -3 -12 -4 -19 -1 -8 3
-5 6 6 6 11 1 17 -2 13 -5z m-118 -35 c-18 -11 -59 -12 -59 -1 0 4 16 9 37 9
24 1 32 -2 22 -8z m-667 -39 c-19 -18 -86 -51 -69 -34 8 9 80 53 86 54 3 0 -5
-9 -17 -20z m84 7 c8 3 14 3 14 0 0 -14 -30 -14 -41 1 -11 14 -11 15 0 5 7 -6
20 -9 27 -6z m229 -17 c-3 -5 -16 -10 -28 -9 -20 1 -20 2 3 9 14 4 26 8 28 9
2 1 0 -3 -3 -9z m-237 -17 c-10 -2 -26 -2 -35 0 -10 3 -2 5 17 5 19 0 27 -2
18 -5z m-31 -19 c-3 -3 -12 -4 -19 -1 -8 3 -5 6 6 6 11 1 17 -2 13 -5z m40 0
c-3 -3 -12 -4 -19 -1 -8 3 -5 6 6 6 11 1 17 -2 13 -5z m-174 -19 c-3 -9 -8
-14 -10 -11 -3 3 -2 9 2 15 9 16 15 13 8 -4z m84 -1 c-3 -3 -12 -4 -19 -1 -8
3 -5 6 6 6 11 1 17 -2 13 -5z m-988 -479 c46 -23 117 -111 175 -214 l54 -96 7
-110 c6 -102 5 -109 -10 -90 -9 11 -20 19 -25 18 -5 -2 -7 3 -4 10 2 7 -7 28
-21 47 -14 19 -25 37 -25 41 0 12 -71 131 -98 164 -51 63 -105 61 -152 -6 -45
-63 -26 -192 31 -204 32 -7 32 -7 49 -129 7 -54 22 -104 46 -153 38 -79 88
-144 107 -139 7 1 8 1 4 -2 -11 -6 22 -41 36 -38 7 2 9 1 4 -2 -12 -6 64 -72
84 -72 9 0 21 -6 26 -12 5 -7 22 -96 36 -198 15 -102 30 -196 34 -210 6 -24 6
-24 -33 7 -291 231 -511 715 -515 1131 -2 141 22 210 87 253 35 23 65 24 103
4z m4628 -27 c58 -54 82 -172 63 -308 -5 -41 -10 -82 -11 -90 -1 -22 -19 -115
-35 -187 -68 -292 -275 -636 -468 -775 l-28 -21 6 30 c4 17 17 106 29 198 l23
168 49 25 c72 37 193 163 232 242 35 69 63 165 63 215 0 48 11 75 29 75 35 0
51 24 57 85 7 69 -8 137 -37 166 -13 13 -33 19 -60 19 -35 0 -47 -6 -76 -37
-35 -39 -163 -245 -163 -264 0 -5 -4 -7 -10 -4 -5 3 -10 -1 -10 -9 0 -8 -5
-18 -11 -22 -8 -5 -10 1 -5 19 3 14 9 65 12 114 5 74 11 96 38 141 17 30 36
62 42 73 6 10 13 16 16 13 3 -3 5 3 5 13 -1 10 4 17 11 15 8 -1 11 2 7 8 -3 5
-1 10 6 10 7 0 9 3 6 7 -10 9 14 34 26 26 5 -3 7 -2 4 4 -8 12 34 53 71 69 38
17 90 9 119 -18z m-3351 -52 c18 -14 12 -22 -112 -143 -72 -70 -214 -215 -317
-322 -179 -187 -186 -193 -193 -166 -10 41 12 175 41 246 53 132 161 261 270
325 111 65 264 94 311 60z m671 -318 c-3 -8 -6 -5 -6 6 -1 11 2 17 5 13 3 -3
4 -12 1 -19z m392 -46 c24 -15 51 -43 61 -62 39 -76 63 -148 71 -211 22 -185
95 -327 237 -461 99 -93 223 -159 356 -188 83 -18 260 -13 347 10 42 11 85 23
95 27 18 6 18 6 3 -10 -15 -14 -15 -22 -3 -74 10 -39 14 -108 12 -214 -1 -85
2 -161 6 -167 4 -7 3 -12 -2 -12 -34 0 -201 -174 -269 -282 l-56 -89 -40 68
c-42 72 -98 146 -132 175 -85 74 -203 119 -380 144 -152 21 -200 41 -221 90
-8 20 -14 43 -12 52 2 9 29 31 60 49 35 20 64 46 74 65 16 31 16 32 -7 51
l-24 20 30 -7 c28 -7 29 -6 10 7 -11 9 -24 13 -30 10 -5 -4 0 5 13 19 12 13
19 28 15 31 -3 4 -2 7 4 7 6 0 13 7 16 14 4 10 1 13 -9 9 -9 -3 -12 0 -9 9 7
17 -28 56 -62 69 -62 23 -106 7 -107 -41 -1 -8 -6 -15 -11 -15 -6 0 -32 -11
-58 -24 -58 -28 -159 -39 -210 -22 -20 7 -52 23 -72 36 l-35 25 6 -28 c4 -15
10 -34 14 -42 4 -8 5 -21 3 -27 -3 -7 1 -13 7 -13 10 0 10 -4 0 -15 -10 -12
-10 -15 0 -15 7 0 10 -6 7 -14 -3 -8 1 -17 10 -20 9 -4 14 -9 11 -11 -3 -3
-21 2 -41 10 -51 21 -103 19 -127 -5 -11 -11 -20 -25 -20 -31 0 -15 22 -35 48
-43 12 -4 22 -12 22 -17 0 -6 4 -7 10 -4 10 6 47 -10 65 -29 9 -10 11 -29 5
-48 -1 -5 -4 -12 -5 -18 -1 -5 -3 -13 -4 -17 -2 -5 -6 1 -11 12 -8 18 -9 17
-9 -7 -1 -44 -39 -64 -133 -72 -167 -14 -325 -62 -406 -124 -72 -54 -108 -99
-157 -194 -25 -49 -48 -88 -50 -88 -2 0 -18 26 -36 58 -51 90 -89 143 -100
137 -5 -3 -6 0 -3 8 10 26 -133 153 -271 240 -147 93 -177 126 -248 271 -54
109 -79 192 -107 346 -18 103 -80 570 -80 605 0 10 17 5 60 -17 l60 -31 0 -83
c0 -242 153 -490 382 -618 204 -113 457 -127 671 -35 270 114 446 370 447 646
0 57 6 84 26 128 29 61 80 112 122 121 15 3 32 7 37 10 24 9 93 -9 134 -34z
m-1092 6 c6 -13 7 -30 4 -39 -8 -21 -442 -469 -454 -469 -5 0 -16 8 -24 18
-39 50 -47 38 189 282 177 183 228 230 249 230 17 0 29 -8 36 -22z m2821 -129
c-10 -7 -10 -9 3 -9 13 0 14 -9 6 -67 -4 -38 -8 -84 -8 -103 0 -33 -1 -34 -12
-13 -11 20 -12 17 -13 -25 -1 -42 -19 -135 -23 -122 -6 17 -12 94 -12 145 0
33 -2 71 -5 85 -6 24 -7 24 -15 5 -8 -17 -9 -16 -4 5 2 14 5 39 5 57 0 24 6
34 23 39 12 5 25 7 30 6 4 -1 7 2 7 8 0 5 7 7 16 3 13 -5 13 -7 2 -14z m-71
-175 c0 -33 -3 -41 -9 -30 -8 15 -2 76 7 76 2 0 3 -21 2 -46z m4 -96 c11 -22
11 -28 0 -28 -5 0 -14 12 -20 28 -10 25 -11 25 -6 2 2 -14 5 -31 5 -38 0 -7 5
-10 10 -7 18 11 11 -11 -9 -29 -11 -10 -23 -30 -27 -44 l-7 -27 -8 25 c-5 17
-7 6 -4 -32 3 -56 -9 -86 -21 -53 -6 14 -7 14 -18 0 -10 -15 -12 -14 -12 4 0
11 5 17 10 14 5 -4 7 2 3 13 -7 18 -6 18 7 1 12 -16 14 -16 20 -1 8 22 8 26
-4 19 -13 -8 -2 45 11 60 5 5 9 17 9 27 0 11 5 15 15 12 11 -5 15 1 15 17 0
20 -2 21 -11 9 -9 -13 -10 -13 -6 2 3 9 9 34 13 55 7 36 7 37 17 13 5 -14 13
-33 18 -42z m-3883 -3 c-3 -3 -9 2 -12 12 -6 14 -5 15 5 6 7 -7 10 -15 7 -18z
m3929 -52 c-3 -10 -5 -4 -5 12 0 17 2 24 5 18 2 -7 2 -21 0 -30z m-27 -49 c0
-8 -5 -12 -10 -9 -6 4 -8 11 -5 16 9 14 15 11 15 -7z m17 -36 c-3 -8 -6 -5 -6
6 -1 11 2 17 5 13 3 -3 4 -12 1 -19z m-47 -58 c0 -11 -4 -20 -10 -20 -5 0 -10
9 -10 20 0 11 5 20 10 20 6 0 10 -9 10 -20z m-130 -25 c-6 -8 -9 -19 -5 -25 9
-14 -4 -50 -18 -50 -8 0 -8 3 1 12 7 7 12 19 12 27 0 10 -7 8 -27 -10 -22 -20
-21 -17 7 19 18 23 35 42 38 42 2 0 -1 -7 -8 -15z m146 -122 c-11 -11 -17 4
-9 23 7 18 8 18 11 1 2 -10 1 -21 -2 -24z m-59 -20 c-3 -10 -5 -2 -5 17 0 19
2 27 5 18 2 -10 2 -26 0 -35z m20 -15 c-2 -13 -4 -3 -4 22 0 25 2 35 4 23 2
-13 2 -33 0 -45z m-287 -28 c-14 -11 -29 -20 -35 -20 -5 0 4 9 20 20 38 25 48
25 15 0z m311 -16 c-5 -16 -10 -21 -10 -12 -1 18 10 51 15 45 2 -1 -1 -16 -5
-33z m-291 1 c0 -2 -15 -12 -32 -20 l-33 -16 25 20 c24 20 40 26 40 16z m-80
-25 c-8 -5 -19 -10 -25 -10 -5 0 -3 5 5 10 8 5 20 10 25 10 6 0 3 -5 -5 -10z
m-40 -30 c-8 -5 -24 -9 -35 -9 -16 1 -16 2 5 9 35 11 48 11 30 0z m389 -30 c0
-10 -3 -8 -9 5 -12 27 -12 43 0 25 5 -8 9 -22 9 -30z m-374 0 c-3 -5 -13 -10
-21 -10 -8 0 -12 5 -9 10 3 6 13 10 21 10 8 0 12 -4 9 -10z m-64 -42 l-5 -43
-6 35 c-6 36 -4 50 8 50 4 0 5 -19 3 -42z m389 -8 c0 -5 -4 -10 -10 -10 -5 0
-10 -9 -10 -20 0 -11 -4 -20 -10 -20 -13 0 -13 16 0 41 11 20 30 26 30 9z m10
-28 c0 -5 -7 -17 -16 -28 -8 -10 -14 -14 -11 -9 2 6 7 18 10 28 7 17 17 23 17
9z m-1425 -42 c-3 -5 -12 -10 -18 -10 -7 0 -6 4 3 10 19 12 23 12 15 0z m1032
-22 c-3 -7 -5 -2 -5 12 0 14 2 19 5 13 2 -7 2 -19 0 -25z m-1067 2 c0 -9 -48
-1 -55 9 -2 4 9 5 26 3 16 -2 29 -8 29 -12z m1414 4 c3 -8 2 -12 -4 -9 -6 3
-10 10 -10 16 0 14 7 11 14 -7z m-1484 -4 c0 -5 -2 -10 -4 -10 -3 0 -8 5 -11
10 -3 6 -1 10 4 10 6 0 11 -4 11 -10z m147 -16 c-3 -3 -12 -4 -19 -1 -8 3 -5
6 6 6 11 1 17 -2 13 -5z m1336 -18 c3 -8 -2 -20 -11 -28 -15 -12 -16 -11 -3 5
9 11 10 17 2 17 -6 0 -11 5 -11 10 0 15 17 12 23 -4z m-168 -26 c3 -5 1 -10
-4 -10 -6 0 -11 5 -11 10 0 6 2 10 4 10 3 0 8 -4 11 -10z m95 -27 c0 -13 -11
-35 -24 -48 -14 -14 -20 -27 -15 -30 5 -4 12 0 15 9 3 8 13 17 22 20 14 5 -16
-25 -67 -66 -33 -27 -161 -86 -166 -77 -7 11 35 29 49 21 5 -3 6 1 1 7 -4 8
-18 11 -36 7 -33 -6 -39 8 -9 24 16 8 24 6 40 -10 19 -19 23 -19 42 -6 21 15
21 15 -7 13 -15 -1 -30 4 -32 11 -3 8 8 12 37 12 29 0 39 -4 34 -12 -4 -7 -3
-8 4 -4 7 4 12 14 12 22 0 8 -4 12 -10 9 -15 -9 -12 12 5 28 8 8 11 17 8 21
-4 3 7 4 23 2 16 -2 24 -1 17 1 -18 7 -24 33 -8 33 8 0 15 5 15 10 0 17 18 11
24 -7 3 -10 4 -4 2 13 -1 23 1 31 11 27 7 -3 13 -16 13 -30z m40 33 c0 -11
-19 -15 -25 -6 -3 5 1 10 9 10 9 0 16 -2 16 -4z m-313 -68 c-3 -8 -6 -5 -6 6
-1 11 2 17 5 13 3 -3 4 -12 1 -19z m13 -154 c0 -8 6 -14 13 -14 8 0 7 -3 -3
-9 -20 -13 -30 -4 -30 25 0 14 4 22 10 19 6 -3 10 -13 10 -21z m-1194 -182
c60 -33 80 -54 69 -71 -13 -22 -440 -19 -462 2 -18 19 67 77 114 77 21 0 24 3
15 12 -7 7 -12 15 -12 19 0 4 48 4 106 1 98 -5 112 -8 170 -40z m-176 -215
c47 -1 200 3 342 7 293 10 329 6 378 -50 41 -47 54 -103 46 -201 -20 -249
-113 -379 -306 -429 -82 -21 -191 -15 -240 13 -47 26 -80 77 -80 123 0 37 1
38 47 45 113 17 183 92 153 164 -20 48 -43 52 -305 52 -267 0 -290 -4 -304
-55 -11 -42 2 -71 55 -128 39 -42 44 -53 44 -93 0 -93 -48 -135 -154 -135 -87
0 -161 33 -232 104 -71 72 -109 146 -130 253 -26 139 -15 242 34 297 40 44 62
47 322 40 135 -3 283 -7 330 -7z m-1063 -857 c50 -72 164 -205 174 -203 4 2 5
-5 2 -15 -6 -14 -4 -15 8 -5 12 9 21 7 48 -9 25 -16 29 -23 19 -30 -9 -7 -8
-8 6 -4 12 4 34 -3 60 -20 23 -15 59 -39 81 -53 113 -73 196 -151 247 -232 24
-38 58 -143 58 -178 0 -16 5 -33 10 -36 19 -12 180 -34 294 -41 l112 -7 50
-46 c56 -52 113 -102 198 -176 81 -70 110 -96 206 -189 137 -130 226 -208 344
-300 42 -32 76 -62 76 -66 0 -10 -180 -56 -310 -79 -507 -89 -1017 -51 -1485
109 -145 49 -331 139 -439 212 -156 104 -316 279 -332 363 -11 59 18 97 146
196 111 84 178 155 213 224 32 65 37 135 37 523 l1 387 72 -140 c40 -77 86
-160 104 -185z"/>
<path d="M4557 7913 c3 -7 9 -10 14 -7 14 8 11 21 -5 21 -8 0 -12 -6 -9 -14z"/>
<path d="M4303 7650 c-13 -5 -23 -14 -23 -19 0 -5 11 -4 25 2 14 7 25 15 25
20 0 8 2 8 -27 -3z"/>
<path d="M6550 6893 c0 -11 7 -20 15 -20 12 0 12 3 3 16 -7 9 -14 18 -15 20
-2 2 -3 -5 -3 -16z"/>
<path d="M6623 6655 c0 -38 2 -53 4 -32 2 20 2 52 0 70 -2 17 -4 1 -4 -38z"/>
<path d="M6580 6686 c0 -8 5 -18 10 -21 6 -3 10 1 10 9 0 8 -4 18 -10 21 -5 3
-10 -1 -10 -9z"/>
<path d="M6661 6664 c0 -11 3 -14 6 -6 3 7 2 16 -1 19 -3 4 -6 -2 -5 -13z"/>
<path d="M6596 6558 c-3 -24 -7 -142 -9 -262 -2 -186 0 -213 10 -180 l13 39
-3 -42 c-1 -23 2 -39 7 -36 5 3 5 31 0 67 -5 33 -9 150 -9 259 0 108 -1 197
-2 197 -1 0 -4 -19 -7 -42z"/>
<path d="M6644 6448 c1 -37 5 -71 9 -74 10 -10 7 97 -3 121 -5 13 -7 -5 -6
-47z"/>
<path d="M6613 6435 c0 -22 2 -30 4 -17 2 12 2 30 0 40 -3 9 -5 -1 -4 -23z"/>
<path d="M6642 6340 c0 -14 2 -19 5 -12 2 6 2 18 0 25 -3 6 -5 1 -5 -13z"/>
<path d="M6611 6304 c0 -11 3 -14 6 -6 3 7 2 16 -1 19 -3 4 -6 -2 -5 -13z"/>
<path d="M6627 6243 c-9 -8 -7 -71 2 -103 5 -16 7 -1 7 42 -1 38 -1 68 -2 68
0 0 -4 -3 -7 -7z"/>
<path d="M6721 6194 c0 -11 3 -14 6 -6 3 7 2 16 -1 19 -3 4 -6 -2 -5 -13z"/>
<path d="M6732 6105 c0 -16 2 -22 5 -12 2 9 2 23 0 30 -3 6 -5 -1 -5 -18z"/>
<path d="M6604 5704 c-23 -21 -24 -24 -6 -14 12 6 26 9 30 6 4 -2 8 4 8 15 0
10 -1 19 -2 19 0 0 -14 -12 -30 -26z"/>
<path d="M6832 5705 c0 -16 2 -22 5 -12 2 9 2 23 0 30 -3 6 -5 -1 -5 -18z"/>
<path d="M6852 5700 c0 -14 2 -19 5 -12 2 6 2 18 0 25 -3 6 -5 1 -5 -13z"/>
<path d="M6690 5580 c0 -5 5 -10 10 -10 6 0 10 5 10 10 0 6 -4 10 -10 10 -5 0
-10 -4 -10 -10z"/>
<path d="M6700 5490 c6 -11 13 -20 16 -20 2 0 0 9 -6 20 -6 11 -13 20 -16 20
-2 0 0 -9 6 -20z"/>
<path d="M6891 5474 c0 -11 3 -14 6 -6 3 7 2 16 -1 19 -3 4 -6 -2 -5 -13z"/>
<path d="M3330 7116 c0 -2 7 -7 16 -10 8 -3 12 -2 9 4 -6 10 -25 14 -25 6z"/>
<path d="M4830 4066 c0 -2 8 -10 18 -17 15 -13 16 -12 3 4 -13 16 -21 21 -21
13z"/>
<path d="M6875 4880 c3 -5 8 -10 11 -10 2 0 4 5 4 10 0 6 -5 10 -11 10 -5 0
-7 -4 -4 -10z"/>
<path d="M6580 4040 c0 -5 7 -7 15 -4 8 4 15 8 15 10 0 2 -7 4 -15 4 -8 0 -15
-4 -15 -10z"/>
<path d="M4179 2437 c6 -8 8 -17 5 -20 -3 -3 1 -16 10 -29 9 -12 16 -18 16
-12 0 5 -6 16 -12 23 -11 11 -10 14 0 18 10 4 10 8 1 19 -6 8 -16 14 -21 14
-7 0 -6 -5 1 -13z"/>
</g>
</svg>
